<svg height="512" viewBox="0 0 512 512" width="512" xmlns="http://www.w3.org/2000/svg"><g id="Outline"><path d="m468.332 361.147-12.9 9.47c28.935 39.408 25.222 91.2 23.077 107.9-18.338 2.376-78.881 6.645-119.21-32.687 7.744-1.46 14.427-3.591 19.009-6.481a55.211 55.211 0 0 0 9.283-7.3 78.666 78.666 0 0 1 -3.185 13.416l15.18 5.058a94.964 94.964 0 0 0 4.72-34.9l12.467 12.468 1.327 5.309a78.569 78.569 0 0 1 1.664 29.546l15.859 2.114a94.875 94.875 0 0 0 .694-17.422l22.022 22.022 11.314-11.314-22.022-22.022a94.7 94.7 0 0 0 17.422-.694l-2.114-15.859a78.587 78.587 0 0 1 -29.539-1.671l-5.305-1.327-12.455-12.448c1.634.085 3.268.137 4.9.137a94.831 94.831 0 0 0 29.985-4.872l-5.056-15.18a78.737 78.737 0 0 1 -34.777 3.422 30.96 30.96 0 0 1 6.491-6.981c3.137-2.476 6.794-5.054 10.667-7.784 16.593-11.7 37.246-26.255 42.751-50.677 3.731-16.545-.157-32.332-11.209-46.016a76.511 76.511 0 0 0 6.78-15.414c10.279-32.411-29.521-49.762-27.866-79.912.043-.783.119-1.572.2-2.362a88.876 88.876 0 0 0 17.721-13.729c22.32-22.315 35.815-53.647 39.027-90.609 2.4-27.621-1.7-48.571-1.879-49.45a8 8 0 0 0 -6.274-6.273c-.878-.176-21.826-4.282-49.449-1.879-36.962 3.212-68.294 16.707-90.609 39.026-1.749 1.75-3.44 3.586-5.027 5.457l12.2 10.348c1.3-1.538 2.7-3.05 4.138-4.491 40.21-40.216 101.659-35.964 120.155-33.6 2.367 18.512 6.612 79.952-33.6 120.155-1.008 1.008-2.05 1.975-3.11 2.918a47.363 47.363 0 0 0 -2.074-20.457 62.814 62.814 0 0 0 -5.256-11.311 79.087 79.087 0 0 1 11 2.8l5.05-15.182a94.73 94.73 0 0 0 -31.406-4.835c-.638-.491-1.287-.968-1.942-1.437l10.915-10.914 5.314-1.323a78.59 78.59 0 0 1 29.546-1.664l2.114-15.859a94.7 94.7 0 0 0 -17.422-.694l22.022-22.022-11.317-11.318-22.022 22.022a94.875 94.875 0 0 0 -.694-17.422l-15.859 2.114a78.569 78.569 0 0 1 -1.668 29.543l-1.327 5.305-12.449 12.456a95.469 95.469 0 0 0 -4.734-34.891l-15.18 5.06a79.3 79.3 0 0 1 4.026 25.924c-25.218-8.079-49.091-10.572-71.689-25.286-3.168-2.064-6.443-4.2-9.805-6.223a89.313 89.313 0 0 0 -47.442-12.945 51.93 51.93 0 0 0 -27.76 7.949c-20.579-8.348-40.19-9.143-58.355-2.352-2.683 1-5.184 2.038-7.55 3.1-.3-.3-.582-.62-.882-.92-22.315-22.32-53.647-35.815-90.609-39.027-27.621-2.4-48.572 1.7-49.449 1.879a8 8 0 0 0 -6.27 6.271c-.607 3.036-14.41 74.95 26.859 128.364l12.661-9.784c-30.642-39.659-26.839-93-24.658-110 18.113-2.347 77.4-6.543 117.716 31.255-16.335 11.112-21.337 23.715-25.563 34.393-.45 1.135-.888 2.241-1.33 3.324a78.724 78.724 0 0 1 3.28-35.923l-15.18-5.058a94.74 94.74 0 0 0 -4.737 34.887l-12.45-12.45-1.323-5.308a78.569 78.569 0 0 1 -1.664-29.546l-15.863-2.111a94.875 94.875 0 0 0 -.694 17.422l-22.022-22.022-11.314 11.314 22.022 22.022a94.709 94.709 0 0 0 -17.422.694l2.114 15.859a78.625 78.625 0 0 1 29.543 1.668l5.305 1.327 12.451 12.45a94.742 94.742 0 0 0 -34.888 4.737l5.058 15.18a78.739 78.739 0 0 1 37.112-3.093l-.832.451c-13.929 7.537-33 17.859-39.9 39.568-8.936 28.089-2.3 40.9 2.554 50.25 2.261 4.356 3.54 6.981 3.54 10.23 0 5.416-1.949 12.991-4.013 21.011-4.006 15.566-8.546 33.209-3.173 48.911.573 1.685 1.234 3.346 1.959 4.966-7.9 16.048-9.767 31.345-5.528 44.786-.836.774-1.663 1.56-2.472 2.369-22.32 22.315-35.815 53.647-39.027 90.609-2.4 27.621 1.7 48.571 1.879 49.449a8 8 0 0 0 6.273 6.274 177.321 177.321 0 0 0 31.957 2.63c5.39 0 11.273-.21 17.493-.751 36.962-3.212 68.294-16.707 90.609-39.026a89.762 89.762 0 0 0 10.171-12.2l.3-.1c12.889-4.168 20.477-6.316 26.483-1.946 13.3 9.684 33.876 17.822 52.42 20.734a102.284 102.284 0 0 0 15.84 1.3c17.78 0 30.454-4.27 42.778-16.366 8.176 1.1 21.926 1.1 26.878.406a89.818 89.818 0 0 0 7.216 8.167c22.315 22.32 53.647 35.815 90.609 39.027 6.221.541 12.1.751 17.493.751a177.425 177.425 0 0 0 31.956-2.63 8 8 0 0 0 6.274-6.274c.59-2.943 14.001-72.775-25.043-125.95zm-208.832-297.199c13.605-.774 28.047 3.986 39.18 10.7 3.124 1.885 6.281 3.941 9.335 5.929 21.586 14.055 45.055 18.569 69.4 25.247 19.823 5.436 39.947 14.833 47.209 35.57 3.638 10.388-.754 19.805-1.857 30.094-2.145 20.035 4.617 36.779 16.407 52.53 8 10.7 14.954 21.991 11.741 32.118a61.947 61.947 0 0 1 -3.806 9.358c-9.791-6.012-24.918-12.449-40.174-18.676a59.081 59.081 0 0 0 -3-20.275 55.889 55.889 0 0 0 -24.319-31q.2-.458.41-.923c4.861-10.952 5.252-12.006 5.487-13.641 1.549-11.156 2.161-22.168-7.246-34.23-18.21-23.346-34.715-25.274-52.189-27.317-4.638-.542-9.435-1.1-14.533-2.08-7.966-1.526-11.959-5.154-17.015-9.747-7.935-7.207-17.809-16.176-42.98-16.176-16.909 0-30.325 12.192-42.161 22.949-1.374 1.248-2.729 2.479-4.069 3.674 7.111-19.472 16.177-35.943 33.826-47.653a40.518 40.518 0 0 1 20.354-6.451zm94.239 281.332c.392 13.472.7 24.114-10.075 33.759-17.719 15.86-38.422 9.583-49.641 4.106 5.307-8.336 9.217-18.441 11.673-30.179 11.753-12.981 16.509-31.055 22.41-47.131 6.553-17.851 10.472-36.255 5.24-55.032-4.25-15.25-12.785-28.012-24.448-36.824 11.338-9.527 28.143-13.959 44.566-11.214 17.456 2.916 30.306 13.375 35.257 28.7 6.631 20.521-4.42 40.135-15.673 56.638-13.027 19.097-20 33.41-19.309 57.177zm-168.061-198.838c10.069-3.417 20.013-7.2 28.225-14.208 10.708-9.137 22.125-24.8 37.657-24.8 18.987 0 25.12 5.569 32.22 12.018 11.627 10.562 26.563 13.39 41.5 16.071 17.369 3.117 29.177 6.713 40.377 21.071 5.075 6.508 5.418 11.76 4.109 21.507-.663 1.706-2.861 6.66-4.358 10.032-.138.312-.275.62-.412.928a71.558 71.558 0 0 0 -8.9-2.074 73.787 73.787 0 0 0 -11.624-1c-8.04-.065-17.722-17.779-23.268-23.074-10.559-10.081-23.912-14.892-38.334-16.152-12.03-1.051-24.413-.391-35.46 4.885-14.962 7.145-25.533 17.927-42.38 20.874-15.881 2.778-36.636 6.414-45.992 33.1-6.052-10.756-8.879-20.081-8.251-27.451.012-.134.019-.273.024-.41.522-14.637 11.275-23.129 24-27.633 3.589-1.269 7.237-2.452 10.867-3.684zm108.636 59.286a74.246 74.246 0 0 0 -32.214-5.044c-22.559 1.329-38.787 9.189-48.232 23.364-15.153 22.74-6.763 53.614-4.673 60.3a35.244 35.244 0 0 0 .354 3.82c-11.022-6.269-23.453-15.42-31.348-27.711-9.871-15.37-10.414-36.88-2.54-53.3 8.7-18.134 31.1-16.87 47.27-23.476 19.591-8 36.05-22.936 58.556-20.98 20.655 1.8 27.472 9.862 35.367 19.2 1.983 2.346 4 4.729 6.251 7.037a66.028 66.028 0 0 0 -28.791 16.79zm-69.158 77.242c0-7.38 2.568-13 7.629-16.7a24.309 24.309 0 0 1 14.246-4.279 28.49 28.49 0 0 1 8.6 1.326 21.628 21.628 0 0 1 15.332 20.4c.016 3.906-1.207 13.406-12.895 17.234-8.468 2.774-18.7 1.345-25.455-3.552a17.022 17.022 0 0 1 -7.457-14.429zm-53.044-4.163c9.914 11.214 22.361 19.77 35.725 26.369 12.6 6.221 26.988 13.167 41.226 13.164a45.078 45.078 0 0 0 13.99-2.187c14.814-4.852 23.977-17.307 23.914-32.507a37.576 37.576 0 0 0 -26.48-35.574c-12.861-4.092-27.091-2.068-37.145 5.282-.8.584-1.555 1.208-2.291 1.849.167-7.576 1.7-15.635 6.132-22.283 6.513-9.774 18.578-15.246 35.858-16.264 10.959-.646 20.932 1.346 29.644 5.918 12.4 6.506 21.132 17.752 25.249 32.524 4.617 16.571-.156 33.581-6.066 49.154-4.872 12.837-9.3 29.3-19.216 39.222-4.575 4.576-10.454 7.918-17.973 10.215-10.149 3.109-20.124-2.751-31.672-9.536-9.109-5.351-18.527-10.884-29.034-12.128-21.977-2.606-32.4-8.227-42.919-23.14-6.809-9.639-3.428-21.385 1.058-30.078zm-93.958-109.444c4.945-15.557 19.461-23.412 32.269-30.342 6.971-3.772 12.991-7.03 17.105-11.348 6.89-7.246 9.991-15.081 12.99-22.657 5.266-13.308 10.241-25.878 38.473-36.433 11.87-4.435 24.737-4.65 38.374-.7-5.084-1.473-16.4 20.2-18.092 23.523-4.483 8.808-6.076 18.778-9.931 27.844-5.234 12.308-9.839 12.026-21.28 16.272a63.163 63.163 0 0 0 -14.613 7.4c-11.168 7.9-17.255 19.926-18.572 33.427 0 .04-.01.1-.013.144-.015.192-.028.375-.036.569-.4 9.931 2.046 19.223 6.128 28.242 4.672 10.323 13.378 18.65 13.686 30.339a62.223 62.223 0 0 0 7.338 28.785c-18.144 27.631-9 46.594-4 53.682 13.118 18.6 27.783 26.682 54.11 29.8 7.178.85 14.771 5.311 22.811 10.034 10.2 5.99 21.463 12.61 34.046 12.61a35.322 35.322 0 0 0 10.41-1.568c1.78-.544 3.474-1.155 5.129-1.8a53.482 53.482 0 0 1 -8.27 13.162 40.224 40.224 0 0 1 -7.79 6.916c-23.657 15.9-38.429 9-57.417-9.3-15.141-14.584-27.878-21.747-46.989-26.428q-1.8-.441-3.676-.893c-21.791-5.254-38.789-10.49-42.933-25.769-1.914-7.07 1.063-14.512 4.509-23.13 2.881-7.2 5.859-14.652 6.212-22.853.54-12.838-3.287-23.467-6.663-32.846-3.946-10.958-7.353-20.422-3.806-32.095a42.117 42.117 0 0 1 10.237-17.216l-11.476-11.148a57.939 57.939 0 0 0 -14.069 23.714c-5.089 16.75-.228 30.253 4.061 42.166 3.157 8.769 6.139 17.052 5.731 26.747-.235 5.47-2.589 11.357-5.083 17.592-2.547 6.37-5.3 13.294-6.045 20.7-9.373-5.054-16.375-11.622-20.839-19.569-.133-.236-.259-.462-.417-.76a41.218 41.218 0 0 1 -2.8-6.416c-3.829-11.191.077-26.369 3.523-39.762 2.32-9.028 4.514-17.557 4.514-24.998 0-7.309-2.834-12.775-5.335-17.6-4.147-8-8.436-16.268-1.511-38.037zm-44.666 309.149c-2.345-18.34-6.526-78.813 32.5-119.027a58.478 58.478 0 0 0 5.844 6.61c8.959 8.715 13.773 16.015 16.6 22.282a78.621 78.621 0 0 1 -21.9-3.968l-5.05 15.182a94.439 94.439 0 0 0 29.917 4.871c.534 0 1.071-.028 1.607-.037.116.648.228 1.292.34 1.93.048.278.1.563.149.843l-9.58 9.579-5.315 1.323a78.568 78.568 0 0 1 -29.546 1.664l-2.114 15.859a94.689 94.689 0 0 0 17.421.695l-22.018 22.025 11.314 11.314 22.022-22.022a94.875 94.875 0 0 0 .694 17.422l15.859-2.114a78.569 78.569 0 0 1 1.668-29.543l1.327-5.305 3.526-3.526a40.943 40.943 0 0 0 10.218 12.231 95.257 95.257 0 0 0 3.437 13.724l12.549-4.167a54.2 54.2 0 0 0 23.125 3.727c-40.101 34.664-96.931 30.687-114.594 28.428zm269.84-44.152a34.313 34.313 0 0 1 -9.039 7.944c-11.114 6.588-25.086 6.556-37.477 4.61-19.715-3.1-36.822-11.556-45.486-17.865-12.461-9.071-27.713-4.432-41.069-.318-13.816 4.255-28.521 6.469-42.424 1.066-17.109-6.649-16.829-20.136-20.608-35.592-2.365-9.75-7.255-23.059-24.237-39.579a37.761 37.761 0 0 1 -8.021-10.983c-3.762-8.047-3.932-17.3-.567-27.62a72.9 72.9 0 0 0 21.534 15.869c.2.1.414.195.628.279l7.615 3.009c7.756 17.062 26.232 24.42 43.076 29.348 20.5 6 36.648 9.532 52.655 24.962 8.638 8.326 20.366 18.3 34.5 21.535a44.1 44.1 0 0 0 9.884 1.126c10.607 0 21.51-3.839 33.061-11.605a54.778 54.778 0 0 0 6.13-4.821c9.881 5.453 21.877 9.3 34.224 9.3.165 0 .33-.008.5-.009-4.013 9.592-7.997 20.927-14.879 29.344zm19.927-2.112c5.712-10.955 11.2-24.568 13.051-29.281.028-.073.056-.147.083-.221.144-.366.282-.725.423-1.088a54.853 54.853 0 0 0 17.524-10.7c16.314-14.6 15.827-31.36 15.4-46.145-.954-32.763 25.174-52.55 34.383-81.87 13.006 5.343 34.413 14.455 39.552 19.753 10.638 10.972 14.344 22.8 11.329 36.171-4.151 18.413-21.264 30.477-36.362 41.12-4.054 2.858-7.882 5.557-11.359 8.3-11.374 8.973-15.385 20.3-18.925 30.3-3.793 10.713-7.07 19.966-18.579 27.233-6.421 4.054-25.657 7.126-46.52 6.428z"/></g></svg>